<svg xmlns="http://www.w3.org/2000/svg" viewBox="0 0 512 512" width="512" height="512">
  <defs>
    <linearGradient id="bg3" x1="0" y1="0" x2="1" y2="1">
      <stop offset="0" stop-color="#00B4D8"/><stop offset="1" stop-color="#0077B6"/>
    </linearGradient>
  </defs>
  <rect width="512" height="512" rx="112" fill="url(#bg3)"/>
  <!-- Variante 3 · Claro: paleta invertida (fondo turquesa, arte azul marino y blanco) -->
  <path d="M64 352 Q160 150 256 240" stroke="#FFFFFF" stroke-width="34" fill="none" stroke-linecap="round"/>
  <path d="M448 352 Q352 150 256 240" stroke="#03045E" stroke-width="34" fill="none" stroke-linecap="round"/>
  <line x1="56" y1="372" x2="456" y2="372" stroke="#CAF0F8" stroke-width="18" stroke-linecap="round"/>
  <path d="M256 330 c-26-24-58-46-58-78 c0-20 15-34 33-34 c11 0 20 6 25 14 c5-8 14-14 25-14 c18 0 33 14 33 34 c0 32-32 54-58 78z" fill="#03045E"/>
</svg>
